<svg xmlns="http://www.w3.org/2000/svg" viewBox="0 0 560 120" role="img" aria-labelledby="title">
  <title id="title">Harvard Medical School</title>
  <rect width="560" height="120" fill="none"/>
  <path d="M24 14h74v46c0 30-37 48-37 48S24 90 24 60V14Z" fill="#a51c30"/>
  <path d="M32 22h58v29H32V22Z" fill="#ffffff"/>
  <path d="M36 27h13v18H36V27Zm18 0h13v18H54V27Zm18 0h13v18H72V27Z" fill="#a51c30"/>
  <text x="38.5" y="40.5" fill="#a51c30" font-family="Georgia, 'Times New Roman', serif" font-size="9" font-weight="700">VE</text>
  <text x="56.5" y="40.5" fill="#a51c30" font-family="Georgia, 'Times New Roman', serif" font-size="9" font-weight="700">RI</text>
  <text x="74.5" y="40.5" fill="#a51c30" font-family="Georgia, 'Times New Roman', serif" font-size="9" font-weight="700">TAS</text>
  <path d="M44 78c14-16 30-16 36 2-12-4-20-1-28 11-5-2-8-6-8-13Z" fill="#ffffff" opacity="0.92"/>
  <text x="126" y="63" fill="#0b1f3a" font-family="Georgia, 'Times New Roman', serif" font-size="55" font-weight="500" letter-spacing="3.6">HARVARD</text>
  <text x="130" y="101" fill="#0b1f3a" font-family="Georgia, 'Times New Roman', serif" font-size="33" font-weight="500" letter-spacing="3.2">MEDICAL SCHOOL</text>
</svg>
