<svg xmlns="http://www.w3.org/2000/svg" width="500" height="105" viewBox="0 0 500 105" role="img" aria-labelledby="title">
  <title id="title">The University of British Columbia</title>
  <rect width="500" height="105" fill="none"/>
  <g fill="#001f3f">
    <path d="M6 6h82v47c0 31-41 46-41 46S6 84 6 53V6Z"/>
    <path d="M13 13h68v34H13V13Z" fill="#ffffff"/>
    <text x="18" y="38" fill="#001f3f" font-family="Arial, Helvetica, sans-serif" font-size="30" font-weight="800" letter-spacing="-2">UBC</text>
    <path d="M16 60c9-5 18-5 27 0s18 5 27 0" fill="none" stroke="#ffffff" stroke-width="5" stroke-linecap="round"/>
    <path d="M16 72c9-5 18-5 27 0s18 5 27 0" fill="none" stroke="#ffffff" stroke-width="5" stroke-linecap="round"/>
    <path d="M18 84l13-29 11 38 11-38 11 29" fill="none" stroke="#ffffff" stroke-width="5" stroke-linecap="round" stroke-linejoin="round"/>
    <text x="112" y="39" font-family="Arial, Helvetica, sans-serif" font-size="22" font-weight="700" letter-spacing="4.2">THE UNIVERSITY</text>
    <text x="112" y="78" font-family="Arial, Helvetica, sans-serif" font-size="22" font-weight="700" letter-spacing="4.2">OF BRITISH COLUMBIA</text>
  </g>
</svg>
