<svg xmlns="http://www.w3.org/2000/svg" viewBox="0 0 1200 675" role="img" aria-labelledby="title desc">
  <title id="title">Regional GWAS and PIP panels for pulmonary function and COPD</title>
  <desc id="desc">Regional association and posterior inclusion probability panels adapted as a web thumbnail for whole-genome sequence analysis of pulmonary function and COPD.</desc>
  <rect width="1200" height="675" rx="26" fill="#ffffff"/>
  <g font-family="Inter, Arial, sans-serif">
    <text x="58" y="54" fill="#0b1f3a" font-size="27" font-weight="800">Whole-genome sequence analysis</text>
    <text x="58" y="87" fill="#64748b" font-size="17">Pulmonary function and COPD in multi-ancestry participants</text>
  </g>

  <g stroke="#e2e8f0" stroke-width="1">
    <path d="M92 318H543M92 196H543M92 74H543M667 318H1108M667 196H1108M667 74H1108"/>
    <path d="M92 613H543M92 512H543M667 613H1108M667 512H1108"/>
  </g>

  <g font-family="Inter, Arial, sans-serif" fill="#0f172a" font-weight="800">
    <text x="34" y="52" font-size="34">E</text>
    <text x="610" y="52" font-size="34">F</text>
  </g>

  <g fill="none" stroke="#0f172a" stroke-width="3" stroke-linecap="round">
    <path d="M92 330V82M92 330H544"/>
    <path d="M667 330V82M667 330H1108"/>
    <path d="M92 624V424M92 624H544"/>
    <path d="M667 624V424M667 624H1108"/>
  </g>

  <g font-family="Inter, Arial, sans-serif" fill="#475569" font-size="16">
    <text transform="translate(36 252) rotate(-90)">GWAS -log10(P)</text>
    <text transform="translate(612 252) rotate(-90)">GWAS -log10(P)</text>
    <text transform="translate(44 562) rotate(-90)">PIP</text>
    <text transform="translate(620 562) rotate(-90)">PIP</text>
    <text x="242" y="658">chr5 (Mb)</text>
    <text x="815" y="658">chr5 (Mb)</text>
  </g>

  <g font-family="Inter, Arial, sans-serif" fill="#64748b" font-size="15">
    <text x="80" y="341">148.2</text><text x="198" y="341">148.3</text><text x="319" y="341">148.4</text><text x="438" y="341">148.5</text>
    <text x="655" y="341">148.3</text><text x="785" y="341">148.4</text><text x="925" y="341">148.5</text>
    <text x="80" y="641">148.2</text><text x="198" y="641">148.3</text><text x="319" y="641">148.4</text><text x="438" y="641">148.5</text>
    <text x="655" y="641">148.3</text><text x="785" y="641">148.4</text><text x="925" y="641">148.5</text>
  </g>

  <g id="panel-e-points">
    <g fill="#061258" opacity="0.92">
      <circle cx="108" cy="304" r="4"/><circle cx="120" cy="314" r="4"/><circle cx="133" cy="287" r="4"/><circle cx="145" cy="299" r="4"/>
      <circle cx="159" cy="310" r="4"/><circle cx="172" cy="292" r="4"/><circle cx="187" cy="306" r="4"/><circle cx="202" cy="314" r="4"/>
      <circle cx="218" cy="298" r="4"/><circle cx="236" cy="286" r="4"/><circle cx="254" cy="307" r="4"/><circle cx="271" cy="315" r="4"/>
      <circle cx="289" cy="296" r="4"/><circle cx="307" cy="303" r="4"/><circle cx="326" cy="312" r="4"/><circle cx="345" cy="289" r="4"/>
      <circle cx="363" cy="306" r="4"/><circle cx="382" cy="295" r="4"/><circle cx="400" cy="310" r="4"/><circle cx="420" cy="301" r="4"/>
      <circle cx="438" cy="314" r="4"/><circle cx="457" cy="289" r="4"/><circle cx="478" cy="303" r="4"/><circle cx="501" cy="311" r="4"/>
      <circle cx="161" cy="257" r="5"/><circle cx="175" cy="246" r="5"/><circle cx="191" cy="252" r="5"/><circle cx="210" cy="236" r="5"/>
      <circle cx="232" cy="223" r="5"/><circle cx="256" cy="217" r="5"/><circle cx="280" cy="219" r="5"/><circle cx="303" cy="226" r="5"/>
      <circle cx="327" cy="222" r="5"/><circle cx="351" cy="214" r="5"/><circle cx="374" cy="216" r="5"/><circle cx="397" cy="211" r="5"/>
      <circle cx="421" cy="200" r="5"/><circle cx="445" cy="186" r="5"/><circle cx="462" cy="170" r="5"/>
    </g>
    <g fill="#15803d" opacity="0.9">
      <circle cx="441" cy="151" r="7"/><circle cx="455" cy="132" r="7"/><circle cx="463" cy="115" r="7"/><circle cx="476" cy="99" r="7"/><circle cx="488" cy="86" r="7"/>
    </g>
    <g fill="#f59e0b" opacity="0.9">
      <circle cx="466" cy="160" r="7"/><circle cx="477" cy="139" r="7"/><circle cx="491" cy="122" r="7"/><circle cx="503" cy="103" r="7"/>
    </g>
    <polygon points="496,67 508,79 496,91 484,79" fill="#dc2626" stroke="#991b1b" stroke-width="2"/>
    <text x="420" y="73" font-family="Inter, Arial, sans-serif" font-size="23" font-weight="800" fill="#111827">rs773410</text>
  </g>

  <g id="panel-f-points">
    <g fill="#061258" opacity="0.92">
      <circle cx="690" cy="306" r="4"/><circle cx="708" cy="314" r="4"/><circle cx="726" cy="295" r="4"/><circle cx="744" cy="300" r="4"/>
      <circle cx="764" cy="307" r="4"/><circle cx="784" cy="291" r="4"/><circle cx="805" cy="309" r="4"/><circle cx="826" cy="316" r="4"/>
      <circle cx="848" cy="297" r="4"/><circle cx="870" cy="305" r="4"/><circle cx="892" cy="314" r="4"/><circle cx="914" cy="298" r="4"/>
      <circle cx="936" cy="306" r="4"/><circle cx="958" cy="316" r="4"/><circle cx="980" cy="302" r="4"/><circle cx="1002" cy="294" r="4"/>
      <circle cx="1024" cy="310" r="4"/><circle cx="1046" cy="303" r="4"/><circle cx="1080" cy="314" r="4"/>
    </g>
    <g fill="#7dd3fc" stroke="#0e7490" stroke-width="1" opacity="0.82">
      <circle cx="786" cy="228" r="6"/><circle cx="812" cy="220" r="6"/><circle cx="838" cy="216" r="6"/><circle cx="866" cy="218" r="6"/>
      <circle cx="894" cy="210" r="6"/><circle cx="922" cy="205" r="6"/><circle cx="950" cy="198" r="6"/>
    </g>
    <g fill="#f59e0b" stroke="#b45309" stroke-width="1" opacity="0.9">
      <circle cx="947" cy="153" r="7"/><circle cx="962" cy="146" r="7"/><circle cx="976" cy="139" r="7"/><circle cx="990" cy="132" r="7"/>
    </g>
    <polygon points="999,119 1011,131 999,143 987,131" fill="#dc2626" stroke="#991b1b" stroke-width="2"/>
    <text x="930" y="119" font-family="Inter, Arial, sans-serif" font-size="23" font-weight="800" fill="#111827">rs773410</text>
  </g>

  <g id="pip-e">
    <g fill="#061258" opacity="0.92">
      <circle cx="107" cy="610" r="3"/><circle cx="129" cy="612" r="3"/><circle cx="151" cy="609" r="3"/><circle cx="173" cy="614" r="3"/><circle cx="195" cy="611" r="3"/>
      <circle cx="217" cy="612" r="3"/><circle cx="239" cy="609" r="3"/><circle cx="261" cy="612" r="3"/><circle cx="283" cy="610" r="3"/><circle cx="305" cy="613" r="3"/>
      <circle cx="327" cy="611" r="3"/><circle cx="349" cy="612" r="3"/><circle cx="371" cy="609" r="3"/><circle cx="393" cy="612" r="3"/><circle cx="415" cy="611" r="3"/>
      <circle cx="437" cy="610" r="3"/><circle cx="459" cy="612" r="3"/><circle cx="481" cy="609" r="3"/><circle cx="503" cy="612" r="3"/>
    </g>
    <polygon points="485,436 497,448 485,460 473,448" fill="#dc2626" stroke="#991b1b" stroke-width="2"/>
    <text x="425" y="438" font-family="Inter, Arial, sans-serif" font-size="21" font-weight="800" fill="#111827">rs773410</text>
  </g>

  <g id="pip-f">
    <g fill="#061258" opacity="0.92">
      <circle cx="685" cy="610" r="3"/><circle cx="707" cy="612" r="3"/><circle cx="729" cy="609" r="3"/><circle cx="751" cy="614" r="3"/><circle cx="773" cy="611" r="3"/>
      <circle cx="795" cy="612" r="3"/><circle cx="817" cy="609" r="3"/><circle cx="839" cy="612" r="3"/><circle cx="861" cy="610" r="3"/><circle cx="883" cy="613" r="3"/>
      <circle cx="905" cy="611" r="3"/><circle cx="927" cy="612" r="3"/><circle cx="949" cy="609" r="3"/><circle cx="971" cy="612" r="3"/><circle cx="993" cy="611" r="3"/>
      <circle cx="1015" cy="610" r="3"/><circle cx="1037" cy="612" r="3"/><circle cx="1059" cy="609" r="3"/><circle cx="1081" cy="612" r="3"/>
    </g>
    <g fill="#f59e0b" opacity="0.85">
      <circle cx="935" cy="595" r="5"/><circle cx="952" cy="585" r="5"/><circle cx="969" cy="572" r="5"/>
    </g>
    <polygon points="990,510 1002,522 990,534 978,522" fill="#dc2626" stroke="#991b1b" stroke-width="2"/>
    <text x="908" y="545" font-family="Inter, Arial, sans-serif" font-size="21" font-weight="800" fill="#111827">rs773410</text>
  </g>

  <g transform="translate(1128 80)" font-family="Inter, Arial, sans-serif">
    <rect x="0" y="0" width="25" height="142" fill="#061258"/>
    <rect x="0" y="28" width="25" height="28" fill="#7dd3fc"/>
    <rect x="0" y="56" width="25" height="28" fill="#15803d"/>
    <rect x="0" y="84" width="25" height="28" fill="#f59e0b"/>
    <rect x="0" y="112" width="25" height="30" fill="#dc2626"/>
    <text x="32" y="12" font-size="14" fill="#475569">2</text>
    <text x="32" y="88" font-size="14" fill="#475569">0.8</text>
  </g>
</svg>
